<?xml version="1.0" encoding="UTF-8" standalone="no"?>
<!DOCTYPE svg PUBLIC "-//W3C//DTD SVG 1.1//EN"
    "http://www.w3.org/Graphics/SVG/1.1/DTD/svg11.dtd">
<svg version="1.1"
     baseProfile="full"
     xmlns="http://www.w3.org/2000/svg"
     xmlns:xlink="http://www.w3.org/1999/xlink"
     xmlns:ev="http://www.w3.org/2001/xml-events"
     width="100%" height="100%">
<g id="View"
   transform="translate(69.40326888,69.40326888) scale(0.2,0.2)"
  >
<g   stroke="rgb(0, 0, 0)"
   stroke-width="1.75"
   stroke-linecap="butt"
   stroke-linejoin="miter"
   fill="none"
  >
<path d="M-331.596 128.076 A152 152 0 0 0 -128.156 331.516" /><path id= "2" d=" M -331.596 128.076 L -331.596 -128.236 " />
<path id= "3" d=" M -128.156 331.516 L 128.156 331.516 " />
<path d="M-130.232 -332.675 A152 152 0 0 0 -331.596 -128.236" /><path d="M128.156 331.516 A152 152 0 0 0 332.596 130.152" /><path id= "6" d=" M -130.232 -332.675 L 130.232 -332.675 " />
<path id= "7" d=" M 332.596 130.152 L 332.596 -130.311 " />
<path d="M332.596 -130.311 A152 152 0 0 0 130.232 -332.675" /><path id= "9" d=" M 93.1155 -82.5886 L 65 -54.4731 " />
<path d="M93.1155 -82.5886 A152 152 0 0 0 317.596 -105.164" /><path id= "11" d=" M 65 54.3136 L 65 -54.4731 " />
<path id= "12" d=" M 317.596 105.005 L 317.596 -105.164 " />
<path id= "13" d=" M 65 54.3136 L 93.1155 82.4291 " />
<path d="M317.596 105.005 A152 152 0 0 0 93.1155 82.4291" /><path d="M-82.5089 -93.1952 A152 152 0 0 0 -105.084 -317.675" /><path id= "16" d=" M -82.5089 -93.1952 L -54.3934 -65.0798 " />
<path id= "17" d=" M -105.084 -317.675 L 105.084 -317.675 " />
<path id= "18" d=" M -54.3934 -65.0798 L 54.3934 -65.0798 " />
<path d="M105.084 -317.675 A152 152 0 0 0 82.5089 -93.1952" /><path id= "20" d=" M 54.3934 -65.0798 L 82.5089 -93.1952 " />
<path id= "21" d=" M 82.5089 93.0357 L 54.3934 64.9202 " />
<path d="M82.5089 93.0357 A152 152 0 0 0 103.741 316.516" /><path id= "23" d=" M -54.3934 64.9202 L 54.3934 64.9202 " />
<path id= "24" d=" M -103.741 316.516 L 103.741 316.516 " />
<path id= "25" d=" M -54.3934 64.9202 L -82.5089 93.0357 " />
<path d="M-103.741 316.516 A152 152 0 0 0 -82.5089 93.0357" /><path id= "27" d=" M -93.1155 82.4291 L -65 54.3136 " />
<path d="M-93.1155 82.4291 A152 152 0 0 0 -316.596 103.661" /><path id= "29" d=" M -65 54.3136 L -65 -54.4731 " />
<path id= "30" d=" M -316.596 103.661 L -316.596 -103.82 " />
<path id= "31" d=" M -65 -54.4731 L -93.1155 -82.5886 " />
<path d="M-316.596 -103.82 A152 152 0 0 0 -93.1155 -82.5886" /><circle cx ="-195.161" cy ="195.082" r ="132" /><circle cx ="-195.161" cy ="-195.241" r ="132" /><circle cx ="195.161" cy ="195.082" r ="132" /><circle cx ="195.161" cy ="-195.241" r ="132" /><path id= "37" d=" M -50 49.9202 L -50 -50.0798 " />
<path id= "38" d=" M -50 49.9202 L 50 49.9202 " />
<path id= "39" d=" M -50 -50.0798 L 50 -50.0798 " />
<path id= "40" d=" M 50 49.9202 L 50 -50.0798 " />
</g>
</g>
</svg>
